<svg width="47" height="34" viewBox="0 0 47 34" fill="none" xmlns="http://www.w3.org/2000/svg">
<g clip-path="url(#clip0_128_90)">
<mask id="mask0_128_90" style="mask-type:luminance" maskUnits="userSpaceOnUse" x="0" y="0" width="41" height="35">
<path d="M40.3 0H0V34.7143H40.3V0Z" fill="white"/>
</mask>
<g mask="url(#mask0_128_90)">
<path fill-rule="evenodd" clip-rule="evenodd" d="M30.464 4.65115C31.0011 4.65115 31.4367 5.0263 31.4367 5.48908V18.2032C31.4367 18.666 31.0011 19.0411 30.464 19.0411C29.9268 19.0411 29.4912 18.666 29.4912 18.2032V5.48908C29.4912 5.0263 29.9268 4.65115 30.464 4.65115Z" fill="#1B3D61"/>
<path fill-rule="evenodd" clip-rule="evenodd" d="M30.5126 -0.0239651C31.594 -0.0162092 32.4642 0.252095 33.1377 0.695599C33.8092 1.13781 34.2231 1.71284 34.4788 2.24569C34.7206 2.7498 34.8341 3.24282 34.8882 3.61446C35.2796 3.6983 35.783 3.836 36.2953 4.06032C37.4331 4.55855 38.7164 5.54596 38.7164 7.32273V7.33303C38.6999 8.48337 38.1567 9.58134 37.2051 10.3884C36.2537 11.1955 34.9705 11.6465 33.635 11.6429L33.6213 11.6428C32.5992 11.6276 31.5834 11.5059 30.5962 11.2812C29.2699 11.8627 27.7509 12.044 26.285 11.7902C25.2246 11.7351 24.221 11.354 23.4581 10.7144C22.6753 10.058 22.2011 9.17581 22.1265 8.23696C22.125 8.21645 22.1242 8.19591 22.1243 8.17535C22.1294 7.34302 22.4028 6.52826 22.9139 5.82193C23.4153 5.12903 24.1263 4.56717 24.9699 4.19632L25.2254 4.05553C25.2355 3.61547 25.3264 3.17844 25.4956 2.76072C25.7339 2.17305 26.1214 1.63839 26.6302 1.19618C27.1392 0.753962 27.7563 0.415395 28.4363 0.205006C29.1011 -0.000628509 29.8097 -0.0786845 30.5126 -0.0239651ZM33.8743 5.15199C33.3623 5.11049 32.9763 4.73283 32.9933 4.29009V4.29155L32.9934 4.27486C32.9934 4.25805 32.9933 4.22995 32.9921 4.19219C32.9894 4.11642 32.9822 4.00344 32.9639 3.86605C32.9266 3.58669 32.846 3.23009 32.6808 2.88584C32.5162 2.54272 32.2823 2.24176 31.956 2.02698C31.6419 1.82007 31.1804 1.65173 30.4644 1.65173C30.4319 1.65173 30.3995 1.65031 30.367 1.64752C29.9363 1.61019 29.5013 1.65621 29.0939 1.78224C28.6864 1.90831 28.3168 2.11113 28.012 2.37593C27.7074 2.64073 27.4752 2.96099 27.3325 3.31314C27.1897 3.66522 27.1402 4.04013 27.1872 4.41081C27.2275 4.72744 27.0559 5.03636 26.7444 5.20798L25.9762 5.6312C25.9468 5.64743 25.9164 5.66227 25.885 5.67567C25.3425 5.90798 24.8854 6.2655 24.565 6.70843C24.2508 7.14249 24.0799 7.64182 24.0702 8.15282C24.1197 8.66863 24.384 9.15206 24.815 9.51352C25.2545 9.88192 25.8363 10.0977 26.4494 10.1195C26.5043 10.1215 26.5589 10.1274 26.6124 10.1373C27.7647 10.3493 28.9673 10.1793 29.9805 9.6612C30.2142 9.54161 30.4955 9.51181 30.7561 9.57903C31.6951 9.82126 32.6678 9.95187 33.6476 9.96705C34.4677 9.96778 35.2556 9.6902 35.8401 9.19431C36.425 8.69834 36.7591 8.02416 36.7709 7.31756C36.7685 6.39635 36.1637 5.88259 35.4138 5.55424C35.0323 5.38719 34.64 5.28433 34.3363 5.22373C34.1865 5.19383 34.0634 5.17524 33.9811 5.16441C33.94 5.15902 33.9094 5.15559 33.8911 5.15368L33.8743 5.15199ZM32.9933 4.29155C32.9931 4.29208 32.9933 4.29178 32.9933 4.29155V4.29155Z" fill="#1B3D61"/>
<path fill-rule="evenodd" clip-rule="evenodd" d="M23.5503 17.7611C22.8363 17.7611 22.1516 18.0054 21.6466 18.4402C21.1419 18.875 20.8583 19.465 20.8583 20.0802C20.8583 20.5429 20.4227 20.9181 19.8855 20.9181C19.3482 20.9181 18.9128 20.5429 18.9128 20.0802C18.9128 19.0207 19.4013 18.0044 20.2711 17.2552C21.1407 16.5061 22.3203 16.0851 23.5503 16.0851C24.7801 16.0851 25.9597 16.5061 26.8295 17.2552C27.6992 18.0044 28.1878 19.0207 28.1878 20.0802C28.1878 20.5429 27.7522 20.9181 27.2151 20.9181C26.6778 20.9181 26.2422 20.5429 26.2422 20.0802C26.2422 19.465 25.9586 18.875 25.4538 18.4402C24.949 18.0054 24.2643 17.7611 23.5503 17.7611Z" fill="#1B3D61"/>
<path fill-rule="evenodd" clip-rule="evenodd" d="M7.42028 13.6427C7.91711 13.1648 8.54776 12.961 9.30674 12.961H27.2277C28.0145 12.961 28.6394 13.195 29.1219 13.6707C29.5276 14.0707 29.8007 14.6202 30.0514 15.1343C30.0678 15.168 30.0816 15.2024 30.0927 15.2375L31.5787 19.9131C31.7206 20.3595 31.4155 20.8205 30.8973 20.9425C30.3793 21.0648 29.8442 20.8021 29.7023 20.3557L28.2332 15.7332C27.9699 15.196 27.813 14.9274 27.6569 14.7734C27.5949 14.7123 27.5499 14.6882 27.5123 14.674C27.471 14.6585 27.3889 14.6368 27.2277 14.6368H9.30674C9.13407 14.6368 9.046 14.6582 9.00229 14.6736C8.96516 14.6867 8.92501 14.7074 8.8696 14.7608C8.72385 14.9009 8.5673 15.1622 8.30612 15.7205L6.92398 20.3434C6.82491 20.6748 6.50188 20.921 6.10796 20.9652C5.71406 21.0097 5.32844 20.8432 5.13388 20.5448L4.15333 19.0414H2.20383C1.6666 19.0414 1.23108 18.6661 1.23108 18.2034C1.23108 17.7406 1.6666 17.3655 2.20383 17.3655H4.72258C5.07421 17.3655 5.39846 17.529 5.57068 17.7929L5.64391 17.9053L6.43783 15.2498C6.44823 15.215 6.46119 15.1808 6.47667 15.1476C6.73046 14.601 7.00354 14.0436 7.42028 13.6427Z" fill="#1B3D61"/>
<path fill-rule="evenodd" clip-rule="evenodd" d="M30.8267 17.8104C30.9954 17.5365 31.326 17.3652 31.686 17.3652H34.2678C34.8049 17.3652 35.2405 17.7404 35.2405 18.2033C35.2405 18.666 34.8049 19.0412 34.2678 19.0412H32.2709L31.3489 20.5378C31.097 20.9466 30.5081 21.1022 30.0336 20.8853C29.559 20.6683 29.3785 20.161 29.6302 19.7523L30.8267 17.8104Z" fill="#1B3D61"/>
<path fill-rule="evenodd" clip-rule="evenodd" d="M8.60136 24.3458C8.20657 24.3458 7.88656 24.6215 7.88656 24.9616V25.1135C7.88656 25.4535 8.20657 25.7292 8.60136 25.7292H10.1378C10.5326 25.7292 10.8526 25.4535 10.8526 25.1135V24.9616C10.8526 24.6215 10.5326 24.3458 10.1378 24.3458H8.60136ZM5.94104 24.9616C5.94104 23.696 7.13211 22.67 8.60136 22.67H10.1378C11.6071 22.67 12.7981 23.696 12.7981 24.9616V25.1135C12.7981 26.3791 11.6071 27.405 10.1378 27.405H8.60136C7.13211 27.405 5.94104 26.3791 5.94104 25.1135V24.9616Z" fill="#1B3D61"/>
<path fill-rule="evenodd" clip-rule="evenodd" d="M3.82847 24.0043C4.36572 24.0043 4.80123 24.3796 4.80123 24.8423V32.6287H7.76724V30.0929C7.76724 29.6301 8.20275 29.255 8.74 29.255C9.27723 29.255 9.71276 29.6301 9.71276 30.0929V32.9784C9.71276 33.0098 9.71071 33.0412 9.70661 33.0724C9.65881 33.4372 9.4456 33.7709 9.11341 34.0008C8.79731 34.2196 8.39807 34.3274 7.99537 34.3045H4.5731C4.1704 34.3274 3.77116 34.2196 3.45506 34.0008C3.12287 33.7709 2.90966 33.4372 2.86186 33.0724C2.85776 33.0412 2.85571 33.0098 2.85571 32.9784V24.8423C2.85571 24.3796 3.29124 24.0043 3.82847 24.0043Z" fill="#1B3D61"/>
<path fill-rule="evenodd" clip-rule="evenodd" d="M33.6377 24.6228C34.1749 24.6228 34.6105 24.998 34.6105 25.4608V32.9786C34.6105 33.0099 34.6085 33.0413 34.6044 33.0726C34.5566 33.4372 34.3433 33.7709 34.0112 34.0009C33.695 34.2197 33.2958 34.3275 32.8932 34.3047H29.4707C29.068 34.3275 28.6689 34.2197 28.3527 34.0009C28.0206 33.7709 27.8073 33.4372 27.7595 33.0726C27.7554 33.0413 27.7534 33.0099 27.7534 32.9786V30.0929C27.7534 29.6302 28.1888 29.255 28.7262 29.255C29.2633 29.255 29.6989 29.6302 29.6989 30.0929V32.6287H32.665V25.4608C32.665 24.998 33.1006 24.6228 33.6377 24.6228Z" fill="#1B3D61"/>
<path fill-rule="evenodd" clip-rule="evenodd" d="M27.253 24.3458C26.8583 24.3458 26.5382 24.6215 26.5382 24.9616V25.1135C26.5382 25.4535 26.8583 25.7292 27.253 25.7292H28.7895C29.1843 25.7292 29.5043 25.4535 29.5043 25.1135V24.9616C29.5043 24.6215 29.1843 24.3458 28.7895 24.3458H27.253ZM24.5927 24.9616C24.5927 23.696 25.7838 22.67 27.253 22.67H28.7895C30.2588 22.67 31.4498 23.696 31.4498 24.9616V25.1135C31.4498 26.3791 30.2588 27.405 28.7895 27.405H27.253C25.7838 27.405 24.5927 26.3791 24.5927 25.1135V24.9616Z" fill="#1B3D61"/>
<path fill-rule="evenodd" clip-rule="evenodd" d="M13.7367 23.953C13.7367 23.4901 14.1722 23.1149 14.7094 23.1149H22.7569C23.294 23.1149 23.7296 23.4901 23.7296 23.953C23.7296 24.4157 23.294 24.7909 22.7569 24.7909H14.7094C14.1722 24.7909 13.7367 24.4157 13.7367 23.953Z" fill="#1B3D61"/>
<path fill-rule="evenodd" clip-rule="evenodd" d="M13.7367 25.8621C13.7367 25.3994 14.1722 25.0242 14.7094 25.0242H22.7569C23.294 25.0242 23.7296 25.3994 23.7296 25.8621C23.7296 26.3248 23.294 26.7 22.7569 26.7H14.7094C14.1722 26.7 13.7367 26.3248 13.7367 25.8621Z" fill="#1B3D61"/>
<path fill-rule="evenodd" clip-rule="evenodd" d="M6.63688 20.9831C5.62308 20.9831 4.80123 21.6909 4.80123 22.5643V27.0554C4.80123 27.9287 5.62308 28.6367 6.63688 28.6367H30.8169C31.8306 28.6367 32.6526 27.9287 32.6526 27.0554V22.5643C32.6526 21.6909 31.8306 20.9831 30.8169 20.9831H6.63688ZM2.85571 22.5643C2.85571 20.7654 4.5486 19.3072 6.63688 19.3072H30.8169C32.9051 19.3072 34.598 20.7654 34.598 22.5643V27.0554C34.598 28.8542 32.9051 30.3125 30.8169 30.3125H6.63688C4.5486 30.3125 2.85571 28.8542 2.85571 27.0554V22.5643Z" fill="#1B3D61"/>
<path fill-rule="evenodd" clip-rule="evenodd" d="M26.9164 7.60364C27.0977 7.16805 27.6549 6.94165 28.1604 7.09797L30.7925 7.91158C31.2981 8.0679 31.5611 8.54771 31.3796 8.98329C31.1981 9.41888 30.6411 9.64527 30.1355 9.48896L27.5034 8.67534C26.9976 8.51903 26.7348 8.03922 26.9164 7.60364Z" fill="#1B3D61"/>
<path fill-rule="evenodd" clip-rule="evenodd" d="M33.8842 6.10147C34.1316 6.5123 33.9454 7.01804 33.4685 7.23105L31.0883 8.29418C30.6112 8.50721 30.0242 8.34686 29.7768 7.93603C29.5295 7.52519 29.7157 7.01946 30.1926 6.80643L32.5728 5.7433C33.0499 5.53029 33.6369 5.69064 33.8842 6.10147Z" fill="#1B3D61"/>
</g>
</g>
<defs>
<clipPath id="clip0_128_90">
<rect width="47" height="34" fill="white"/>
</clipPath>
</defs>
</svg>
