<svg width="39" height="33" viewBox="0 0 39 33" fill="none" xmlns="http://www.w3.org/2000/svg">
<path d="M6.5 16.7458V7.78434C6.5 6.5241 7.71836 5.5 9.22407 5.5H20.4336C21.9364 5.5 23.1577 6.52168 23.1577 7.78434V25.2157C23.1577 26.4759 21.9393 27.5 20.4336 27.5H9.22407C7.72124 27.5 6.5 26.4784 6.5 25.2157V16.7458Z" stroke="#1B3D61" stroke-miterlimit="8.3333" stroke-linecap="round" stroke-linejoin="round"/>
<path d="M15.2417 10.3904L11.2734 15.8916H18.5118L13.5349 23.0988" stroke="#D72660" stroke-miterlimit="10" stroke-linecap="round" stroke-linejoin="round"/>
<path d="M33.4142 9.21411C33.4142 10.5081 33.0234 13.1539 30.6212 13.1539C28.2908 13.1539 27.8281 10.5081 27.8281 9.21411H33.4142Z" stroke="#1B3D61" stroke-miterlimit="8.3333" stroke-linecap="round" stroke-linejoin="round"/>
<path d="M29.2754 9.21497V7.55713" stroke="#1B3D61" stroke-miterlimit="8.3333" stroke-linecap="round" stroke-linejoin="round"/>
<path d="M31.5859 9.21497V7.55713" stroke="#1B3D61" stroke-miterlimit="8.3333" stroke-linecap="round" stroke-linejoin="round"/>
<path d="M23.8036 13.7891C23.8036 13.7891 25.8957 13.5312 25.8957 15.0829C25.8957 16.6348 25.8957 23.9889 25.8957 23.9889C25.8957 23.9889 25.7433 27.2276 28.3093 27.2276C30.8467 27.2276 30.4817 24.124 30.4817 24.124V13.1914" stroke="#1B3D61" stroke-miterlimit="8.3333" stroke-linecap="round" stroke-linejoin="round"/>
</svg>
