<?xml version="1.0" encoding="utf-8" ?>
<svg xmlns="http://www.w3.org/2000/svg" xmlns:xlink="http://www.w3.org/1999/xlink" width="1024" height="1024">
	<path fill="#00949C" d="M778.735 268.201C783.111 267.699 788.332 268.432 792.675 268.997C797.608 269.64 809.166 271.125 812.344 275.261C812.348 275.669 812.528 276.114 812.357 276.484C811.7 277.911 803.499 281.187 801.806 282.078C769.071 299.308 740.164 320.617 719.44 351.777C723.586 349.062 727.943 346.683 732.468 344.663C759.001 332.629 788.943 329.44 816.522 339.946C836.804 347.671 858.537 365.132 867.248 385.556C868.131 387.626 868.968 389.546 868.133 391.724C865.172 392.865 843.466 384.063 838.519 382.719C831.605 380.842 824.371 379.486 817.278 378.477C788.948 374.447 760.347 378.144 732.735 384.754C738.936 388.151 745.538 389.921 752.173 392.218C763.409 396.108 773.951 401.303 783.388 408.597C800.413 421.757 815.855 447.155 818.501 468.728C819.361 475.744 821.353 495.155 816.891 500.855C815.821 501.171 815.748 501.364 814.825 500.599C811.813 498.099 808.88 493.49 806.286 490.454C800.677 483.889 794.975 477.617 788.854 471.523C764.41 447.189 740.604 432.431 708.251 420.698C711.709 428.453 714.435 436.658 717.318 444.644C750.441 536.398 751.405 637.853 740.715 733.78C752.179 733.833 813.775 732.501 819.156 735.025C821.608 736.175 823.329 738.673 824.151 741.188C825.102 744.095 824.936 747.102 823.393 749.765C821.972 752.214 819.638 753.751 816.924 754.455C811.013 755.987 803.588 754.994 797.498 754.957L772.483 755.045L651.37 755.035L332.915 755.04L233.947 755.012C216.497 755.01 198.981 755.326 181.537 754.924C178.238 754.848 175.136 754.754 172.293 752.851C170.019 751.339 168.461 748.964 167.979 746.275C167.443 743.35 168.1 740.297 169.931 737.936C171.645 735.726 174.204 734.372 176.94 733.912C181.996 733.063 188.432 733.935 193.652 733.885C206.762 733.721 219.873 733.693 232.984 733.802C241.819 733.801 250.971 734.091 259.756 733.055L260.584 732.953C251.17 726.359 246.022 720.11 241.936 709.354C226.984 708.865 205.472 703.869 193.422 694.735C186.371 689.39 180.35 680.879 179.345 671.904C178.74 666.506 180.845 663.143 183.978 659.081C184.223 651.784 182.704 644.556 182.68 637.258C182.589 609.489 196.392 595.78 214.738 577.485L239.96 552.28C238.727 550.445 237.842 548.705 237.479 546.5C237.086 544.117 237.292 541.751 238.815 539.787C244.39 532.599 266.69 530.178 275.709 529.254C295.267 527.25 315.027 526.125 334.647 524.888C365.047 522.972 395.422 521.534 425.862 523.508C434.674 524.08 443.674 524.621 452.362 526.249C469.677 529.495 487.06 536.239 502.653 544.31C508.389 547.279 512.601 552.233 518.022 555.626C529.353 562.718 541.464 568.757 553.225 575.094C563.053 580.39 573.028 586.484 583.436 590.543C589.984 593.097 598.806 592.944 605.82 593.784C627.993 596.44 652.372 604.062 669.809 618.439C681.642 628.195 687.741 641.822 692.19 656.146C693.439 660.166 694.801 664.149 695.175 668.366C696 677.674 693.177 692.238 686.889 699.419C682.088 704.902 675.252 705.003 668.531 705.4C667.206 706.605 665.819 707.822 664.236 708.682C660.477 710.724 655.231 709.959 651.272 708.915C647.374 721.356 643.255 727.002 631.972 733.873C644.311 733.307 656.831 733.755 669.189 733.775C677.598 733.79 686.369 734.392 694.544 732.174C698.097 707.732 702.08 683.381 704.151 658.749C711.087 579.193 701.351 499.065 675.563 423.486C649.875 427.411 608.641 467.716 593.312 487.995C589.041 493.644 571.77 522.058 569.167 523.335C568.497 523.663 568.036 523.3 567.434 522.988C565.635 522.057 564.773 519.964 564.301 518.106C562.621 511.492 562.829 502.645 563.196 495.873C565.068 461.294 583.141 432.137 610.746 412.067C614.156 409.588 632.249 399.063 632.874 398.016C632.599 397.818 632.356 397.562 632.047 397.421C629.165 396.107 622.415 397.056 619.101 397.192C590.32 398.376 560.069 404.971 534.47 418.436C529.094 421.245 523.915 424.416 518.969 427.926C515.415 430.475 511.736 435.149 507.666 436.604C506.913 436.404 506.487 436.457 505.982 435.797C504.083 433.309 505.307 428.132 505.871 425.254C509.953 404.437 523.493 385.867 541.003 374.155C562.314 359.9 588.778 355.088 614.013 358.323C622.505 359.412 630.623 361.61 638.988 363.29C636.281 359.732 632.441 356.801 628.995 353.972C610.315 338.635 587.145 324.394 564.182 316.557C557.183 314.168 549.936 312.08 542.727 310.425C537.932 309.324 533.057 308.532 528.327 307.172L528.027 306.052C528.859 303.895 530.897 302.531 532.732 301.239C550.095 289.006 574.476 287.119 594.837 290.833C619.523 295.335 645.065 308.286 661.999 326.977C667.82 333.403 672.604 340.933 677.526 348.058C680.321 333.458 686.648 321.538 696.654 310.549C717.621 287.522 747.092 269.743 778.735 268.201ZM547.867 686.058C546.511 677.138 550.491 665.047 554.791 657.253C562.402 644.398 575.221 636.453 589.538 632.858C603.793 629.28 617.42 631.412 630.025 639.022C642.021 646.109 650.627 657.76 653.874 671.309C654.783 675.076 655.313 679.097 655.368 682.973C659.211 681.724 662.447 681.618 666.404 681.978C670.722 674.723 671.963 667.882 669.898 659.65C666.789 647.255 655.997 635.836 645.235 629.481C633.387 622.484 619.317 619.418 605.791 617.811C595.744 616.556 585.621 616.009 575.497 616.174C562.088 616.435 548.792 617.687 535.357 617.281C473.926 615.841 412.528 613.239 351.196 609.475C335.819 608.538 298.923 607.115 285.9 602.344C281.418 600.702 277.432 597.802 276.039 593.035C273.949 585.889 278.576 578.699 282.059 572.793C286.607 565.221 291.269 557.719 296.045 550.288C295.093 550.171 294.286 550.11 293.332 550.22C284.149 550.675 273.217 550.368 264.512 553.457C262.833 557.573 261.465 561.376 258.826 565.003C254.696 570.678 248.835 575.164 243.61 579.8C232.03 590.074 215.061 605.169 208.543 619.12C214.42 618.676 223.479 616.502 228.438 620.45C229.792 621.527 230.521 623.07 230.68 624.776C230.915 627.306 230.16 630.334 228.477 632.279C221.885 639.893 209.462 632.884 203.437 642.121C202.345 651.87 201.681 664.815 208.394 672.885C212.96 678.374 222.012 682.65 229.132 682.951C231.136 683.036 233.597 682.726 235.225 681.449C237.727 679.486 238.587 670.18 239.834 666.847C247.391 646.652 268.097 630.901 289.904 630.883C306.023 630.869 322.087 638.946 333.225 650.287C344.334 661.599 345.024 671.524 348.932 685.997L547.867 686.058ZM548.375 733.661C554.886 733.852 563.88 734.961 569.866 732.446L570.295 731.917C569.37 729.91 564.768 728.537 562.852 726.692C558.11 722.123 555.066 716.112 552.787 710.022L396.932 709.964L361.217 710.035C355.43 710.057 348.094 710.978 342.541 709.646C337.015 720.707 331.31 727.519 320.854 734.089C339.517 733.118 358.433 733.911 377.129 733.944L465.003 733.788C483.623 734.021 502.245 734.048 520.865 733.869C530.008 733.831 539.249 734.067 548.375 733.661ZM597.793 659.898C587.667 661.297 579.072 668.028 575.288 677.524C571.503 687.02 573.112 697.818 579.5 705.798C585.888 713.779 596.071 717.713 606.166 716.099C621.544 713.641 632.078 699.261 629.783 683.857C627.488 668.453 613.221 657.767 597.793 659.898ZM289.044 659.763C273.213 661.449 261.762 675.672 263.493 691.498C265.224 707.324 279.48 718.735 295.301 716.959C311.058 715.19 322.414 701.004 320.689 685.241C318.965 669.478 304.811 658.083 289.044 659.763ZM380.655 546.202C360.927 547.468 341.048 549.481 321.311 550.129C314.605 562.846 308.015 576.356 299.396 587.899C302.401 587.754 305.368 587.787 308.375 587.865C334.517 588.616 360.603 589.909 386.729 590.992C384.131 578.764 382.717 565.923 381.821 553.465C381.712 551.959 382.037 547.955 381.511 546.714C381.411 546.479 381.144 546.358 380.961 546.18L380.655 546.202ZM532.851 596.038C521.242 589.225 512.39 578.646 501.449 570.9C480.006 555.72 455.579 548.111 429.53 546.42C421.812 545.919 413.661 546.619 406.042 545.592C408.975 560.886 410.509 576.553 413.716 591.756C428.626 591.506 443.896 592.861 458.809 593.508L532.851 596.038Z"/>
</svg>
